HIERARCHY
ROOT hips
{
  OFFSET 0 9.313263304106702 1.2146308026317778
  CHANNELS 6 Xposition Yposition Zposition Yrotation Xrotation Zrotation
  JOINT spine
  {
    OFFSET -6.402521e-31 0.5173342420023708 0
    CHANNELS 3 Yrotation Xrotation Zrotation
    JOINT chest
    {
      OFFSET 0 1.130544299341115 0
      CHANNELS 3 Yrotation Xrotation Zrotation
      JOINT upperChest
      {
        OFFSET 0 1.0863555061129995 0
        CHANNELS 3 Yrotation Xrotation Zrotation
        JOINT neck
        {
          OFFSET 0 1.3773706506454462 0
          CHANNELS 3 Yrotation Xrotation Zrotation
          JOINT head
          {
            OFFSET 0 0.7374408940073979 0
            CHANNELS 3 Yrotation Xrotation Zrotation
            JOINT leftEye
            {
              OFFSET 0.25066580148932727 0.6408406698778757 0.15963719178883284
              CHANNELS 3 Yrotation Xrotation Zrotation
              End Site
              {
                OFFSET 0.25066580148932727 0.6408406698778757 0.15963719178883284
              }
            }
            JOINT rightEye
            {
              OFFSET -0.25066576739704244 0.6408406384191823 0.15963727561643756
              CHANNELS 3 Yrotation Xrotation Zrotation
              End Site
              {
                OFFSET -0.25066576739704244 0.6408406384191823 0.15963727561643756
              }
            }
          }
        }
        JOINT leftShoulder
        {
          OFFSET 0.3761817444281191 1.0539491987447769 0
          CHANNELS 3 Yrotation Xrotation Zrotation
          JOINT leftUpperArm
          {
            OFFSET 0.8702844380000002 0 0
            CHANNELS 3 Yrotation Xrotation Zrotation
            JOINT leftLowerArm
            {
              OFFSET 2.198527310000323 0 0
              CHANNELS 3 Yrotation Xrotation Zrotation
              JOINT leftHand
              {
                OFFSET 2.146852313968281 0 0
                CHANNELS 3 Yrotation Xrotation Zrotation
                JOINT leftIndexProximal
                {
                  OFFSET 0.6585177834681599 0.07380250427007962 0.18382213159631788
                  CHANNELS 3 Yrotation Xrotation Zrotation
                  JOINT leftIndexIntermediate
                  {
                    OFFSET 0.3323021288626682 -0.009606893929485771 -0.012820872253340998
                    CHANNELS 3 Yrotation Xrotation Zrotation
                    JOINT leftIndexDistal
                    {
                      OFFSET 0.2045908926985518 -0.0071133989147997845 -0.006828784783599051
                      CHANNELS 3 Yrotation Xrotation Zrotation
                      End Site
                      {
                        OFFSET 0.2045908926985518 -0.0071133989147997845 -0.006828784783599051
                      }
                    }
                  }
                }
                JOINT leftLittleProximal
                {
                  OFFSET 0.6110054258835662 0.07380246363125398 -0.29175655876064077
                  CHANNELS 3 Yrotation Xrotation Zrotation
                  JOINT leftLittleIntermediate
                  {
                    OFFSET 0.3144281999999998 -2.5124724523095665e-9 1.8658118799974588e-7
                    CHANNELS 3 Yrotation Xrotation Zrotation
                    JOINT leftLittleDistal
                    {
                      OFFSET 0.18116185580251631 0.002815456192251098 0.0034826415518049436
                      CHANNELS 3 Yrotation Xrotation Zrotation
                      End Site
                      {
                        OFFSET 0.18116185580251631 0.002815456192251098 0.0034826415518049436
                      }
                    }
                  }
                }
                JOINT leftMiddleProximal
                {
                  OFFSET 0.6637478005691111 0.07380246480054087 0.02046981859247815
                  CHANNELS 3 Yrotation Xrotation Zrotation
                  JOINT leftMiddleIntermediate
                  {
                    OFFSET 0.3705733999999994 -2.9611069152224445e-9 9.35054791928458e-8
                    CHANNELS 3 Yrotation Xrotation Zrotation
                    JOINT leftMiddleDistal
                    {
                      OFFSET 0.22861063500000056 -1.82673876025774e-9 -1.6740782024515788e-7
                      CHANNELS 3 Yrotation Xrotation Zrotation
                      End Site
                      {
                        OFFSET 0.22861063500000056 -1.82673876025774e-9 -1.6740782024515788e-7
                      }
                    }
                  }
                }
                JOINT leftRingProximal
                {
                  OFFSET 0.6561845547265777 0.07380246406440083 -0.13588087571513918
                  CHANNELS 3 Yrotation Xrotation Zrotation
                  JOINT leftRingIntermediate
                  {
                    OFFSET 0.3437531000000005 -2.746796123886952e-9 1.4935781944558357e-7
                    CHANNELS 3 Yrotation Xrotation Zrotation
                    JOINT leftRingDistal
                    {
                      OFFSET 0.1983118991198174 -0.002467117924596085 -0.004538141969590015
                      CHANNELS 3 Yrotation Xrotation Zrotation
                      End Site
                      {
                        OFFSET 0.1983118991198174 -0.002467117924596085 -0.004538141969590015
                      }
                    }
                  }
                }
                JOINT leftThumbProximal
                {
                  OFFSET 0.09767004258864787 -0.14930060425447422 -0.07008212897521154
                  CHANNELS 3 Yrotation Xrotation Zrotation
                  JOINT leftThumbIntermediate
                  {
                    OFFSET 0.36682123028154767 -0.015768465060082004 0.28693641268151077
                    CHANNELS 3 Yrotation Xrotation Zrotation
                    JOINT leftThumbDistal
                    {
                      OFFSET 0.21091084272403915 -0.016756648201192714 0.1933767059105508
                      CHANNELS 3 Yrotation Xrotation Zrotation
                      End Site
                      {
                        OFFSET 0.21091084272403915 -0.016756648201192714 0.1933767059105508
                      }
                    }
                  }
                }
              }
            }
          }
        }
        JOINT rightShoulder
        {
          OFFSET -0.37618174442811925 1.0539491987447769 0
          CHANNELS 3 Yrotation Xrotation Zrotation
          JOINT rightUpperArm
          {
            OFFSET -0.870284438 0 0
            CHANNELS 3 Yrotation Xrotation Zrotation
            JOINT rightLowerArm
            {
              OFFSET -2.1985273100003235 0 0
              CHANNELS 3 Yrotation Xrotation Zrotation
              JOINT rightHand
              {
                OFFSET -2.1468523139682802 0 0
                CHANNELS 3 Yrotation Xrotation Zrotation
                JOINT rightIndexProximal
                {
                  OFFSET -0.6585177834681599 0.07380250427007962 0.18382213159631788
                  CHANNELS 3 Yrotation Xrotation Zrotation
                  JOINT rightIndexIntermediate
                  {
                    OFFSET -0.3323021288626682 -0.009606893929485771 -0.012820872253340998
                    CHANNELS 3 Yrotation Xrotation Zrotation
                    JOINT rightIndexDistal
                    {
                      OFFSET -0.2045908926985518 -0.0071133989147997845 -0.006828784783599051
                      CHANNELS 3 Yrotation Xrotation Zrotation
                      End Site
                      {
                        OFFSET -0.2045908926985518 -0.0071133989147997845 -0.006828784783599051
                      }
                    }
                  }
                }
                JOINT rightLittleProximal
                {
                  OFFSET -0.6110054258835662 0.07380246363125398 -0.29175655876064077
                  CHANNELS 3 Yrotation Xrotation Zrotation
                  JOINT rightLittleIntermediate
                  {
                    OFFSET -0.3144281999999998 -2.5124724523095665e-9 1.8658118799974588e-7
                    CHANNELS 3 Yrotation Xrotation Zrotation
                    JOINT rightLittleDistal
                    {
                      OFFSET -0.18116185580251631 0.002815456192251098 0.0034826415518049436
                      CHANNELS 3 Yrotation Xrotation Zrotation
                      End Site
                      {
                        OFFSET -0.18116185580251631 0.002815456192251098 0.0034826415518049436
                      }
                    }
                  }
                }
                JOINT rightMiddleProximal
                {
                  OFFSET -0.6637478005691111 0.07380246480054087 0.02046981859247815
                  CHANNELS 3 Yrotation Xrotation Zrotation
                  JOINT rightMiddleIntermediate
                  {
                    OFFSET -0.3705733999999994 -2.9611069152224445e-9 9.35054791928458e-8
                    CHANNELS 3 Yrotation Xrotation Zrotation
                    JOINT rightMiddleDistal
                    {
                      OFFSET -0.22861063500000056 -1.82673876025774e-9 -1.6740782024515788e-7
                      CHANNELS 3 Yrotation Xrotation Zrotation
                      End Site
                      {
                        OFFSET -0.22861063500000056 -1.82673876025774e-9 -1.6740782024515788e-7
                      }
                    }
                  }
                }
                JOINT rightRingProximal
                {
                  OFFSET -0.6561845547265777 0.07380246406440083 -0.13588087571513918
                  CHANNELS 3 Yrotation Xrotation Zrotation
                  JOINT rightRingIntermediate
                  {
                    OFFSET -0.3437531000000005 -2.746796123886952e-9 1.4935781944558357e-7
                    CHANNELS 3 Yrotation Xrotation Zrotation
                    JOINT rightRingDistal
                    {
                      OFFSET -0.1983118991198174 -0.002467117924596085 -0.004538141969590015
                      CHANNELS 3 Yrotation Xrotation Zrotation
                      End Site
                      {
                        OFFSET -0.1983118991198174 -0.002467117924596085 -0.004538141969590015
                      }
                    }
                  }
                }
                JOINT rightThumbProximal
                {
                  OFFSET -0.09767004258864787 -0.14930060425447422 -0.07008212897521154
                  CHANNELS 3 Yrotation Xrotation Zrotation
                  JOINT rightThumbIntermediate
                  {
                    OFFSET -0.36682123028154767 -0.015768465060082004 0.28693641268151077
                    CHANNELS 3 Yrotation Xrotation Zrotation
                    JOINT rightThumbDistal
                    {
                      OFFSET -0.21091084272403915 -0.016756648201192714 0.1933767059105508
                      CHANNELS 3 Yrotation Xrotation Zrotation
                      End Site
                      {
                        OFFSET -0.21091084272403915 -0.016756648201192714 0.1933767059105508
                      }
                    }
                  }
                }
              }
            }
          }
        }
      }
    }
  }
  JOINT leftUpperLeg
  {
    OFFSET 0.7715603 -0.3993844658041501 0
    CHANNELS 3 Yrotation Xrotation Zrotation
    JOINT leftLowerLeg
    {
      OFFSET 0 -3.529830000249343 0
      CHANNELS 3 Yrotation Xrotation Zrotation
      JOINT leftFoot
      {
        OFFSET 0 -4.154939295409685 0.004208579085223096
        CHANNELS 3 Yrotation Xrotation Zrotation
        JOINT leftToes
        {
          OFFSET 0 -0.6353414391261847 1.10414981190622
          CHANNELS 3 Yrotation Xrotation Zrotation
          End Site
          {
            OFFSET 0 -0.6015820691747853 1.10414981190622
          }
        }
      }
    }
  }
  JOINT rightUpperLeg
  {
    OFFSET -0.7715603 -0.3993844658041501 0
    CHANNELS 3 Yrotation Xrotation Zrotation
    JOINT rightLowerLeg
    {
      OFFSET 0 -3.529830000249343 0
      CHANNELS 3 Yrotation Xrotation Zrotation
      JOINT rightFoot
      {
        OFFSET 0 -4.154939295409685 0.004208579085223096
        CHANNELS 3 Yrotation Xrotation Zrotation
        JOINT rightToes
        {
          OFFSET 0 -0.6353414391261847 1.10414981190622
          CHANNELS 3 Yrotation Xrotation Zrotation
          End Site
          {
            OFFSET 0 -0.6015820691747853 1.10414981190622
          }
        }
      }
    }
  }
}
MOTION
Frames: 4
Frame Time: 0.03333333333333333
0.2134231410243294 8.686514767733486 1.6591573666229775 1.6796922459318055 7.3168111714221755 -1.7518582592072691 2.9592788681414204 5.777786097923009 0.9444760806118895 3.060748790282989 6.417301484808564 1.0218684254872927 0 0 0 0.01963699042183382 -0.21894151296161246 -6.891774565931294 -4.740100958843692 -16.359121622913293 -6.657092686044224 0 0 0 0 0 0 3.680074422709638 0.6544940056626863 -10.716311612156733 6.366447662404264 -11.19758334583531 -73.17202050495534 -6.492688599202767 1.374616013889507e-7 -0.00001889901916876622 -1.6491981458091198 43.937865727935765 5.2425438806343525 4.439071205183616 0.5060005981415409 -6.974440875907552 1.6687958824110927 0.20312882403130425 -13.863331606861744 0.8870948453962869 0.058053983186433664 -7.434248286561128 7.202994797637636 5.136422684570195 -54.83389523208033 -1.2143826605715837 0.7297439067198228 -25.199931428946794 1.3015106562882743 0.16421850307318375 -10.94403822045541 4.7490062381917095 1.5945180683380165 -27.465305217372833 1.5366735492408674 0.17208253927946626 -12.818400964023894 1.1650427997011565 0.09863023482275637 -9.679571524261801 5.630038984471542 2.5043508939492876 -37.035718395534836 2.1644610514838334 0.34768368208128103 -18.23793372102227 1.6328714164121063 0.19572837595334835 -13.657808014543106 5.639714650684753 -5.789888478763619 5.190592291953187 24.402421815732858 17.093114687673236 7.812026549883931 -4.278906606231175 -6.317787703558551 6.4833710203587875 22.137474210881514 0.8202349648792007 8.225173147135 -32.76106138391467 -34.63449197589994 68.06050894996075 28.581526126960448 0.000015904611920590298 -0.00002977186127220429 21.673309942122614 49.45807055165668 11.270599305005415 4.396870432088271 0.6890336585573636 -10.167765018627282 -0.9634107764210976 0.06941356198813826 8.171839093918788 -0.7040772791122583 0.034535856448520634 5.703538244928805 -6.799918708002837 3.4601661883289103 86.76163081934985 -6.866240433396823 5.363469493327953 77.75146047191825 -4.697325443932177 1.6755271117865873 41.32379090553426 -6.748935963001665 4.855728007416335 63.51719311129819 -6.940438873432518 7.183727176913481 91.83334126253314 -3.732192908481451 1.0675154214193197 31.974290758383333 -7.007788262866771 6.863929193378618 85.9733727741175 -7.012856704775732 7.270832234368115 92.15965076981297 -4.237043537582391 1.4529462390131282 37.30583334122609 -21.990571671582423 -3.0656863081818018 -7.0780852613051914 -11.551186694975282 9.170948456044433 0.9766984185077834 -30.01287782362952 9.185077441825962 -6.88480767470026 10.601186787365076 -22.87798585758002 -1.1002233426411232 -0.3088610789144517 29.496704337859903 0.8337490008038694 -0.04131145266014676 -14.11690080204505 0.5457392237544508 -7.628696536173787e-7 -2.4316764321868716 -0.0000016026460770609435 -7.341734380938676 -24.682959089131312 -2.2853610133784823 -12.083526123348989 30.35964645989313 -4.926619256268866 -11.251951044406907 -5.513881909959331 8.181269586593098 0.000017780351528234472 -7.9762474607727665 -0.0000031188625223998844
0.2360974116758867 8.686421134255149 1.6822260439183156 1.0545712967715262 6.604014511771968 -2.2782631278294385 2.7565857659211854 5.474982416500012 0.7312835503896012 2.8442283048083934 6.088434211712418 0.754405719170848 0 0 0 -0.37313942428375235 -0.6418036626786583 -7.555816793213929 -7.519920686619501 -16.198113219632408 -6.940126425447303 0 0 0 0 0 0 3.4727699122137956 0.642184469629796 -10.545327877385477 6.615488763189623 -10.499557076811662 -72.74158508354971 -6.483493145604043 -0.000006745891138068759 0.000003489148075765822 -1.027713504284919 44.073363883809314 5.536355818531625 4.494018827827364 0.5183252597825224 -7.0549236613671225 1.6543142036236107 0.19956258949025316 -13.739854513071489 0.885632882034576 0.05785653458951464 -7.422083856909147 7.1911407542605295 5.114707203014074 -54.77545517111284 -1.2149470686892287 0.7294674750897239 -25.194633032831526 1.3035912202225568 0.16467602091032504 -10.961615016756436 4.766967308039441 1.604631222802074 -27.484563320165126 1.536664694485092 0.1720731610672752 -12.81842170170024 1.166445780174966 0.098888968642569 -9.69127986349175 5.640969757255345 2.511532032240886 -37.00656863068313 2.164035096225467 0.34754926361894417 -18.234252638020287 1.6328353682782573 0.195721985953931 -13.657513958575846 5.715890566762551 -5.749543065678699 5.044315522513649 24.356007842818904 17.087930458362454 7.800984536041781 -4.260224348181122 -6.314241803199017 6.47796220945063 21.084585811310617 0.7837507628627097 8.374441733654134 -28.74108613986439 -29.067796575062356 65.68281390279519 25.748396300010036 0.0000030998709809706506 -0.000013034256279209616 21.793108197513035 50.8976705496308 11.038258359634076 4.436411711480558 0.6763428531705016 -9.817217647775973 -0.96711474576163 0.06994293539080368 8.20261067254502 -0.7048630310466535 0.03460886411372587 5.710036860877287 -6.784408344585989 3.468466803017425 86.46567197638468 -6.864902159647683 5.357978765550551 77.705430089525 -4.689704989311485 1.6690367350037159 41.24177895709923 -6.756253862857473 4.8662000673251296 63.417175986381125 -6.941059547033963 7.159676469065048 91.63591223634039 -3.749250284464458 1.078461545029 32.140343926076426 -7.0084678372582205 6.8537958035171975 85.74937676081488 -7.0130474410343675 7.266272298099393 92.122099157133 -4.236349689718227 1.4531393606785545 37.302324856377524 -21.8852416520594 -3.1283564623553164 -7.0523342821428425 -11.723151596565687 9.235130606961791 0.957342862727949 -29.685336855446458 9.091072338951188 -6.778876660911551 10.871102785818152 -22.170343742396366 -0.4917359373472504 -0.16712385992547635 29.900587045643444 0.7872498087394639 -0.06570950983173532 -14.63478659181902 0.6645264250943828 -0.00000669969168994351 -2.395894619436398 1.1765936033484736e-7 -7.524262398691827 -24.032680453233088 -2.0530182254700216 -12.162023243518616 30.6663343579446 -4.962951392718924 -10.460806888245568 -4.9048589469998625 8.272960453341446 0.000014998575514115201 -8.783050088744897 -0.00000500630298354277
0.2571674639528448 8.686622272838244 1.705260854938213 0.22954546233397274 5.975142155972062 -2.8335249240751597 2.585122860130959 5.192677399197293 0.5180014198130648 2.6636800706244235 5.780587051361742 0.49893740569506706 0 0 0 -0.7649002971501737 -1.0661965393944888 -8.117317686421096 -10.233526243030687 -16.19995715332301 -7.119851010544588 0 0 0 0 0 0 3.436276260609503 0.6440029619598975 -10.580464474680214 7.063363527699167 -9.890558873280627 -72.2163109854584 -6.768477198244427 -0.000007807374444570141 -0.000021547668673742928 -0.18909741936458477 44.53019123317992 5.737104176563643 4.500617510476635 0.520643137059 -7.077637924818544 1.6616299832968464 0.20135955389010546 -13.802158908082609 0.8867664490236076 0.05799879469602895 -7.431524139793445 7.192759923803004 5.123802019398943 -54.860105706020526 -1.2121625499897593 0.7308828799263422 -25.220365808816897 1.3030077171924894 0.1645467403704313 -10.956748466460677 4.786963979183908 1.615537044120835 -27.495542931017066 1.5366700286753268 0.17208900931206167 -12.818437444377938 1.166412313633326 0.09886312194096325 -9.690982574416955 5.639299016170062 2.5093837969543062 -36.98448840942904 2.1627900780120624 0.34714395381286367 -18.223277946685567 1.6323621777383166 0.1955964137946853 -13.653567087812196 5.698239948087682 -5.7590108852103885 5.075604938345362 24.346387003521208 17.08681931564385 7.79870832220714 -4.233181503980435 -6.309097370286845 6.470141057231575 19.03689888582714 0.7107678216167327 8.739040435922405 -24.635646604487956 -24.541685580140797 64.44408968975837 22.19627901508397 -0.000008035438840559293 0.0000043268506082119145 22.226377178395424 51.77523421625647 10.308229629005991 4.422382495916836 0.6457600860598433 -9.331791518559683 -0.9762276853771092 0.07126239020201643 8.277974543134189 -0.6995705162355437 0.0340732844721127 5.66632003900827 -6.781815869345782 3.581131117559329 86.26639586468303 -6.863574536323099 5.352489802147746 77.65928495779994 -4.678285328277624 1.6593107121878892 41.119167190149184 -6.766159087662955 4.889910291058648 63.50563495743324 -6.941543527491933 7.13557884478963 91.43802261921506 -3.773980249004568 1.094227601714795 32.38088891577176 -7.0108594827105675 6.871998910674442 85.59868878488801 -7.013189448025262 7.261887986249595 92.0861088735271 -4.235142194304434 1.4537484039604356 37.29761323114339 -21.798919075764793 -3.1826822746137076 -7.042074781754969 -11.856192988236376 9.284751407722556 0.9421348963569832 -29.28172690753879 8.974266177601933 -6.649758411629065 11.165788475202925 -21.535581579234506 0.14946379720924502 0.1875695744437952 30.265685103281026 0.8409838999654204 -0.08254583097493386 -15.143429513043781 0.723286976536406 -0.000004190707572299252 -2.4566630784919754 5.25883412500765e-7 -7.661329593751301 -23.559366747387966 -1.7708577877893963 -12.26409332880383 31.031707137814337 -5.0501053542964796 -9.474733741279293 -4.10384348722554 8.326648550861652 -8.42914691682653e-8 -9.801793373432721 -0.0000011327494038682587
0.2796869657256386 8.683606928045098 1.7264032726725327 -0.6489062062601555 5.368370714910757 -3.267222036674736 2.3815562763469855 4.963646539121072 0.2157422790025014 2.4549075413247756 5.532377699259276 0.1720071469940161 0 0 0 -1.1350856637590194 -1.543196317006778 -8.32795130393199 -12.43841177616491 -16.186998416420156 -7.506669829654239 0 0 0 0 0 0 3.2204587732783745 0.6367294767910585 -10.485899121344804 7.562510135342467 -8.858524136714363 -71.78063920142164 -7.846974896586354 -0.000005160165705419352 -0.0000033524634075522414 0.8988886115446058 44.588535873143464 5.659462988672058 4.5082719069836825 0.5210834356497144 -7.068901006158448 1.6614980308952603 0.2013331801257156 -13.801203059928143 0.8873738883929758 0.05808561284822964 -7.43652892379546 7.188265307939845 5.117964949663742 -54.868590964988066 -1.2124878292081047 0.7307255059698763 -25.217453843109002 1.3034789775800364 0.1646539561065319 -10.960863537826919 4.807703342427551 1.625187798341551 -27.460204263273376 1.5367080996933988 0.17208603443109485 -12.818749725630594 1.166448234269258 0.09887456119083274 -9.691304002929662 5.65645341551726 2.5220690119638522 -36.9763666925689 2.161916198220984 0.3468535053640017 -18.21579263498088 1.6330621490831365 0.1957673162630026 -13.659530062090306 5.728366883462837 -5.739878904261982 5.118521368711193 24.344520141290435 17.086628171181548 7.7982635295360145 -4.2247085896778485 -6.307499677356335 6.467676672252838 16.541703923011134 0.6587820452356868 9.01834612210362 -20.39558239129894 -20.086430943915964 63.86768499028514 18.871254619817226 0.00001030903326638819 -0.000012410777183000969 22.7710882765596 51.18158552835967 8.926571211406966 4.358513973021537 0.6304643695088272 -9.256451849874223 -0.9895436802718245 0.07317369075952107 8.388396651246653 -0.6978133955933384 0.033914159045732514 5.651768318775881 -6.784221160085279 3.6498487514805777 86.21631519454172 -6.854453074097613 5.315414647026334 77.34695512448168 -4.645698991723289 1.6318975408563057 40.77082294375449 -6.776804926417742 4.900975006400077 63.272000267460314 -6.942276983618767 7.091516223853638 91.07633506732581 -3.800437999342152 1.111532317047835 32.64002290719381 -7.011127848039779 6.838089646793041 85.18554036822093 -7.013938472099257 7.240954217671935 91.9141895420187 -4.225952312825699 1.4473526570136466 37.20586423548683 -21.629196197099155 -3.2944981765324495 -7.041029926967299 -12.081289097579617 9.36858780479657 0.916023162127182 -28.703947694564608 8.80510448986054 -6.4676927201320265 11.30353400734223 -20.939769366939764 0.6216446022102144 0.7963383772595586 30.686660656465683 1.1162643903453922 -0.10641045361668675 -15.674842614626375 0.6977887309590329 0.00000500430676073954 -2.685202369825354 -0.0000012552960413333358 -7.839255390088495 -23.31082142137626 -1.6504758043510415 -12.408313865944542 31.66024095832186 -5.186927056987324 -8.302939645624901 -3.271270499560034 8.381615412228424 -0.0000015802569993300766 -10.942665398706906 0.0000030542227388011572
